<svg width="32" height="40" viewBox="0 0 32 40" fill="none" xmlns="http://www.w3.org/2000/svg">
<g clip-path="url(#clip0_1_2)">
<path d="M27 14.0356H5C4.4473 14.0356 4 13.5878 4 13.0356C4 12.4834 4.4473 12.0356 5 12.0356H27C27.5527 12.0356 28 12.4834 28 13.0356C28 13.5878 27.5527 14.0356 27 14.0356Z" fill="black"/>
<path d="M27 19H5C4.4473 19 4 18.5522 4 18C4 17.4478 4.4473 17 5 17H27C27.5527 17 28 17.4478 28 18C28 18.5522 27.5527 19 27 19Z" fill="black"/>
<path d="M20.5732 30.4077H11.4268C10.3243 30.4077 9.42679 29.5107 9.42679 28.4077V27.2231C9.42679 26.1201 10.3243 25.2231 11.4268 25.2231H20.5733C21.6758 25.2231 22.5733 26.1201 22.5733 27.2231V28.4077C22.5733 29.5107 21.6757 30.4077 20.5732 30.4077ZM11.4267 27.2231V28.4077H20.5742L20.5732 27.2231H11.4267Z" fill="#68B52A"/>
<path d="M12.8155 28.4077H11.2227C10.6704 28.4077 10.2227 28.8554 10.2227 29.4077V31C10.2227 31.5523 10.6704 32 11.2227 32H12.8155C13.3678 32 13.8155 31.5523 13.8155 31V29.4077C13.8155 28.8554 13.3678 28.4077 12.8155 28.4077Z" fill="#68B52A"/>
<path d="M20.7774 28.4077H19.1846C18.6323 28.4077 18.1846 28.8554 18.1846 29.4077V31C18.1846 31.5523 18.6323 32 19.1846 32H20.7774C21.3297 32 21.7774 31.5523 21.7774 31V29.4077C21.7774 28.8554 21.3297 28.4077 20.7774 28.4077Z" fill="#68B52A"/>
<path d="M20.7773 27.2231H11.2227C10.9161 27.2231 10.627 27.0825 10.4375 26.8422C10.248 26.6015 10.1787 26.2875 10.25 25.9897L10.9131 23.2294C11.1943 22.0595 12.2305 21.2421 13.4336 21.2421H18.5664C19.7695 21.2421 20.8057 22.0595 21.0869 23.2294L21.75 25.9897C21.8213 26.2876 21.752 26.6015 21.5625 26.8422C21.373 27.0824 21.084 27.2231 20.7773 27.2231ZM12.4912 25.2231H19.5088L19.1416 23.6962C19.0781 23.4286 18.8408 23.2421 18.5664 23.2421H13.4336C13.1592 23.2421 12.9219 23.4286 12.8584 23.6962L12.4912 25.2231Z" fill="#68B52A"/>
<path d="M11.2236 27.2231C10.8564 27.2231 10.5029 27.0205 10.3281 26.6699L9.80859 25.6303H9.63089C9.07819 25.6303 8.63089 25.1825 8.63089 24.6303C8.63089 24.0781 9.07819 23.6303 9.63089 23.6303H10.4268C10.8057 23.6303 11.1524 23.8442 11.3213 24.1835L12.1172 25.7763C12.3643 26.27 12.1641 26.8705 11.6699 27.1176C11.5263 27.1894 11.374 27.2231 11.2236 27.2231Z" fill="#68B52A"/>
<path d="M20.7764 27.2231C20.626 27.2231 20.4737 27.1894 20.3301 27.1176C19.836 26.8705 19.6358 26.2699 19.8828 25.7763L20.6787 24.1835C20.8476 23.8441 21.1943 23.6303 21.5732 23.6303H22.3691C22.9218 23.6303 23.3691 24.0781 23.3691 24.6303C23.3691 25.1825 22.9218 25.6303 22.3691 25.6303H22.1914L21.6719 26.6699C21.4971 27.0205 21.1436 27.2231 20.7764 27.2231Z" fill="#68B52A"/>
<path d="M30 32H28C26.8975 32 26 31.103 26 30V10C26 9.4487 25.5518 9 25 9H21.9102C21.3575 9 20.9102 8.5522 20.9102 8C20.9102 7.4478 21.3575 7 21.9102 7H25C26.6543 7 28 8.3457 28 10V30H30V8C30 6.3457 28.6543 5 27 5H21.1904C20.6377 5 20.1904 4.5522 20.1904 4C20.1904 3.4478 20.6377 3 21.1904 3H27C29.7568 3 32 5.2432 32 8V30C32 31.103 31.1025 32 30 32Z" fill="black"/>
<path d="M4 32H2C0.8975 32 0 31.103 0 30V8C0 5.2432 2.2432 3 5 3H10.8096C11.3623 3 11.8096 3.4478 11.8096 4C11.8096 4.5522 11.3623 5 10.8096 5H5C3.3457 5 2 6.3457 2 8V30H4V10C4 8.3457 5.3457 7 7 7H10.0898C10.6425 7 11.0898 7.4478 11.0898 8C11.0898 8.5522 10.6425 9 10.0898 9H7C6.4482 9 6 9.4487 6 10V30C6 31.103 5.1025 32 4 32Z" fill="black"/>
<path d="M16.0049 13.9985C12.1455 13.9985 9.00491 10.8584 9.00491 6.9985C9.00491 3.1386 12.1455 -0.00149918 16.0049 -0.00149918C19.8643 -0.00149918 23.0049 3.1386 23.0049 6.9985C23.0049 10.8584 19.8643 13.9985 16.0049 13.9985ZM16.0049 1.9985C13.2481 1.9985 11.0049 4.2417 11.0049 6.9985C11.0049 9.7553 13.2481 11.9985 16.0049 11.9985C18.7617 11.9985 21.0049 9.7553 21.0049 6.9985C21.0049 4.2417 18.7617 1.9985 16.0049 1.9985Z" fill="black"/>
<path d="M15.6172 10.3179C15.4268 10.3179 15.2344 10.2637 15.0635 10.1499C14.6035 9.8437 14.4795 9.2227 14.7862 8.7632L15.296 7.9986H14.8458C14.4767 7.9986 14.1378 7.7955 13.964 7.4703C13.7902 7.1451 13.8097 6.7506 14.0138 6.4439L15.5597 4.1251C15.8644 3.6656 16.4855 3.5401 16.9464 3.8478C17.4064 4.154 17.5304 4.775 17.2237 5.2345L16.7139 5.9987H17.1641C17.5332 5.9987 17.8721 6.2018 18.0459 6.527C18.2197 6.8517 18.2012 7.2462 17.9961 7.5534L16.4502 9.8727C16.2578 10.1618 15.9404 10.3179 15.6172 10.3179Z" fill="#68B52A"/>
</g>
<defs>
<clipPath id="clip0_1_2">
<rect width="32" height="40" fill="white"/>
</clipPath>
</defs>
</svg>
